<svg width="160" height="160" viewBox="0 0 160 160" fill="none" xmlns="http://www.w3.org/2000/svg">
<g clip-path="url(#clip0_1018_18113)">
<rect x="33.6465" width="130" height="130" rx="65" transform="rotate(15 33.6465 0)" fill="#FFF500"/>
<path d="M21.0092 81.9693C21.2335 81.1322 21.6882 80.5431 22.3731 80.2021C23.0709 79.8646 24.0845 79.7911 25.4138 79.9816L28.8839 80.4766C29.1697 79.2556 28.5849 78.4502 27.1295 78.0602C26.447 77.8773 25.8582 77.8852 25.3632 78.0838C24.8846 78.2731 24.5642 78.6704 24.402 79.2757L22.0452 78.6442C22.3523 77.4979 23.0258 76.6845 24.0656 76.2039C25.1088 75.7105 26.3131 75.6466 27.6782 76.0124C29.082 76.3886 30.1183 77.0804 30.787 78.0878C31.4592 79.0823 31.6038 80.2943 31.2207 81.7239L30.3407 85.0081L31.751 85.3859L31.1712 87.5496L29.2007 87.0216C28.7757 86.9077 28.4784 86.7038 28.3087 86.4099C28.1518 86.1194 28.1286 85.7681 28.2391 85.356L28.3271 85.0275L29.0085 84.0299L28.3517 83.8539C27.3635 85.6873 25.8004 86.3176 23.6625 85.7447C22.967 85.5584 22.4005 85.303 21.9628 84.9787C21.5381 84.6578 21.2594 84.3071 21.1267 83.9264C20.994 83.5458 20.9206 83.2017 20.9063 82.8942C20.8956 82.5739 20.9299 82.2656 21.0092 81.9693ZM23.6152 82.2121C23.5151 82.5856 23.5616 82.9017 23.7545 83.1605C23.9638 83.4098 24.2745 83.5897 24.6866 83.7001C25.6268 83.952 26.4423 83.9221 27.1332 83.6103C27.8276 83.2856 28.2765 82.7433 28.4801 81.9834L25.4647 81.5689C24.8936 81.4849 24.4651 81.4874 24.179 81.5763C23.8963 81.6524 23.7084 81.8644 23.6152 82.2121ZM41.4961 87.5209C40.9957 89.3884 39.3353 89.9442 36.5148 89.1885C34.8662 88.7467 33.729 88.0969 33.1031 87.239C32.4934 86.3717 32.3474 85.3456 32.6648 84.1607L35.1569 84.8285C34.8325 86.0391 35.4753 86.8601 37.0852 87.2915C38.2056 87.5917 38.8487 87.4327 39.0143 86.8145C39.1006 86.4925 39.0245 86.2099 38.786 85.9665C38.5476 85.7232 38.0923 85.3872 37.4203 84.9587C37.241 84.8554 37.1049 84.7707 37.0123 84.7044C35.8511 83.9378 35.1037 83.3786 34.77 83.0269C34.0967 82.2944 33.8726 81.482 34.0979 80.5899C34.3222 79.7528 34.8442 79.1956 35.6639 78.9183C36.487 78.6281 37.5232 78.6504 38.7725 78.9851C40.2536 79.382 41.2603 80.0037 41.7926 80.8504C42.3284 81.6841 42.4652 82.5904 42.2029 83.5692L39.7109 82.9014C39.98 81.8969 39.49 81.2272 38.2407 80.8925C37.2748 80.6337 36.7194 80.7747 36.5744 81.3156C36.495 81.6119 36.6051 81.8967 36.9045 82.1702C37.2039 82.4437 37.7647 82.8493 38.5869 83.3871C39.7609 84.1572 40.5053 84.7017 40.8201 85.0208C41.5192 85.7602 41.7445 86.5936 41.4961 87.5209ZM51.3763 90.1683C50.8759 92.0357 49.2155 92.5916 46.395 91.8359C44.7465 91.3941 43.6092 90.7443 42.9833 89.8864C42.3736 89.0191 42.2276 87.993 42.5451 86.8081L45.0371 87.4759C44.7128 88.6865 45.3555 89.5075 46.9654 89.9388C48.0859 90.2391 48.7289 90.0801 48.8946 89.4619C48.9808 89.1399 48.9047 88.8573 48.6663 88.6139C48.4278 88.3706 47.9725 88.0346 47.3006 87.6061C47.1212 87.5028 46.9851 87.4181 46.8925 87.3518C45.7313 86.5852 44.9839 86.026 44.6502 85.6743C43.9769 84.9418 43.7528 84.1294 43.9781 83.2373C44.2024 82.4002 44.7244 81.843 45.5441 81.5657C46.3672 81.2755 47.4034 81.2978 48.6527 81.6325C50.1338 82.0294 51.1405 82.6511 51.6729 83.4978C52.2087 84.3315 52.3454 85.2378 52.0832 86.2166L49.5911 85.5488C49.8602 84.5443 49.3702 83.8746 48.1209 83.5399C47.155 83.2811 46.5996 83.4221 46.4546 83.963C46.3753 84.2593 46.4853 84.5441 46.7847 84.8176C47.0841 85.0911 47.6449 85.4967 48.4671 86.0345C49.6411 86.8046 50.3855 87.3491 50.7003 87.6682C51.3994 88.4076 51.6248 89.241 51.3763 90.1683ZM53.0015 88.0777C53.4087 86.558 54.1869 85.4827 55.3359 84.852C56.4885 84.2083 57.7988 84.0832 59.267 84.4766C60.7352 84.87 61.7998 85.6108 62.4607 86.6989C63.1344 87.7905 63.2764 89.064 62.8864 90.5193L62.669 91.3307L55.1927 89.3274C55.0149 90.0942 55.0957 90.7715 55.4351 91.3594C55.7908 91.9378 56.4452 92.3547 57.3983 92.6101C58.7763 92.9793 59.7339 92.6769 60.271 91.7027L62.7631 92.3704C62.3575 93.2142 61.6344 93.9039 60.5937 94.4395C59.5564 94.9621 58.3101 95.0285 56.8547 94.6385C55.1418 94.1796 53.9722 93.3416 53.3458 92.1247C52.7194 90.9078 52.6047 89.5588 53.0015 88.0777ZM55.5965 87.8206L60.7159 89.1923C60.8712 88.6127 60.7864 88.0793 60.4614 87.5919C60.1494 87.108 59.5683 86.7521 58.7183 86.5244C57.8683 86.2966 57.1726 86.3173 56.6312 86.5863C56.0932 86.8425 55.7483 87.2539 55.5965 87.8206ZM72.4951 95.827C71.9947 97.6945 70.3342 98.2504 67.5137 97.4946C65.8652 97.0529 64.728 96.4031 64.102 95.5452C63.4924 94.6778 63.3463 93.6517 63.6638 92.4669L66.1559 93.1346C65.8315 94.3452 66.4743 95.1662 68.0841 95.5976C69.2046 95.8978 69.8477 95.7388 70.0133 95.1207C70.0996 94.7987 70.0235 94.516 69.785 94.2727C69.5465 94.0293 69.0913 93.6934 68.4193 93.2649C68.2399 93.1616 68.1039 93.0768 68.0112 93.0106C66.8501 92.2439 66.1027 91.6848 65.769 91.3331C65.0957 90.6005 64.8716 89.7882 65.0968 88.8961C65.3211 88.0589 65.8431 87.5017 66.6628 87.2244C67.486 86.9343 68.5222 86.9565 69.7715 87.2913C71.2526 87.6881 72.2593 88.3099 72.7916 89.1565C73.3274 89.9903 73.4642 90.8965 73.2019 91.8753L70.7098 91.2076C70.979 90.203 70.489 89.5334 69.2397 89.1986C68.2738 88.9398 67.7183 89.0809 67.5734 89.6218C67.494 89.918 67.604 90.2029 67.9035 90.4763C68.2029 90.7498 68.7637 91.1554 69.5858 91.6932C70.7599 92.4633 71.5043 93.0079 71.8191 93.3269C72.5182 94.0664 72.7435 94.8998 72.4951 95.827ZM82.3753 98.4744C81.8749 100.342 80.2144 100.898 77.3939 100.142C75.7454 99.7003 74.6082 99.0505 73.9822 98.1926C73.3726 97.3252 73.2265 96.2991 73.544 95.1143L76.0361 95.782C75.7117 96.9926 76.3545 97.8136 77.9644 98.245C79.0848 98.5452 79.7279 98.3862 79.8935 97.7681C79.9798 97.4461 79.9037 97.1634 79.6652 96.9201C79.4268 96.6767 78.9715 96.3408 78.2995 95.9123C78.1202 95.809 77.9841 95.7242 77.8914 95.658C76.7303 94.8913 75.9829 94.3322 75.6492 93.9805C74.9759 93.2479 74.7518 92.4356 74.977 91.5435C75.2014 90.7063 75.7234 90.1491 76.5431 89.8718C77.3662 89.5817 78.4024 89.6039 79.6517 89.9387C81.1328 90.3355 82.1395 90.9573 82.6718 91.8039C83.2076 92.6377 83.3444 93.5439 83.0821 94.5227L80.59 93.855C80.8592 92.8504 80.3692 92.1808 79.1199 91.846C78.154 91.5872 77.5985 91.7283 77.4536 92.2692C77.3742 92.5654 77.4843 92.8502 77.7837 93.1237C78.0831 93.3972 78.6439 93.8028 79.466 94.3406C80.6401 95.1107 81.3845 95.6553 81.6993 95.9743C82.3984 96.7138 82.6237 97.5472 82.3753 98.4744ZM98.17 94.9006C99.2518 95.1905 99.9352 95.8084 100.22 96.7544C100.505 97.7004 100.47 98.8366 100.114 100.163L98.6493 105.63L96.1572 104.963L97.5496 99.7659C97.805 98.8128 97.8651 98.1249 97.7299 97.7022C97.5982 97.2666 97.2103 96.9625 96.5664 96.79C94.9307 96.3517 93.7575 97.4591 93.0466 100.112L92.0423 103.86L89.5503 103.192L90.9427 97.9955C91.1981 97.0425 91.2582 96.3546 91.123 95.9319C90.9912 95.4963 90.6034 95.1922 89.9594 95.0196C88.3238 94.5814 87.1505 95.6888 86.4396 98.3419L85.4354 102.09L82.9433 101.422L85.5419 91.724L88.034 92.3918L87.6975 93.6475L86.8598 94.9966L87.4973 95.1674C88.4562 93.34 89.8115 92.661 91.5631 93.1303C93.1729 93.5617 93.8719 94.7911 93.6599 96.8187L94.1235 96.9429C95.0825 95.1155 96.4313 94.4348 98.17 94.9006ZM101.295 101.018C101.702 99.4982 102.48 98.4229 103.629 97.7922C104.782 97.1485 106.092 97.0234 107.56 97.4168C109.029 97.8102 110.093 98.551 110.754 99.6391C111.428 100.731 111.57 102.004 111.18 103.459L110.962 104.271L103.486 102.268C103.308 103.034 103.389 103.712 103.728 104.3C104.084 104.878 104.739 105.295 105.692 105.55C107.07 105.92 108.027 105.617 108.564 104.643L111.057 105.311C110.651 106.154 109.928 106.844 108.887 107.38C107.85 107.902 106.603 107.969 105.148 107.579C103.435 107.12 102.266 106.282 101.639 105.065C101.013 103.848 100.898 102.499 101.295 101.018ZM103.89 100.761L109.009 102.132C109.165 101.553 109.08 101.019 108.755 100.532C108.443 100.048 107.862 99.6923 107.012 99.4646C106.162 99.2368 105.466 99.2574 104.925 99.5265C104.387 99.7826 104.042 100.194 103.89 100.761ZM119.204 102.856C118.251 102.6 117.418 102.722 116.705 103.221C115.995 103.707 115.465 104.601 115.117 105.902L114.082 109.765L111.59 109.098L114.188 99.3997L116.68 100.067L116.313 101.439L115.47 102.808L116.107 102.978C116.558 102.119 117.167 101.496 117.934 101.107C118.717 100.71 119.61 100.646 120.615 100.915C121.813 101.236 122.645 101.866 123.111 102.805C123.593 103.735 123.645 104.908 123.265 106.325L121.79 111.831L119.317 111.168L120.694 106.029C120.942 105.102 120.946 104.392 120.705 103.9C120.478 103.411 119.977 103.063 119.204 102.856ZM128.01 111.385L131.558 112.129L130.979 114.293L126.445 113.285C125.952 113.167 125.611 112.944 125.423 112.618C125.234 112.291 125.207 111.877 125.342 111.375L127.009 105.154L124.768 104.554L125.347 102.39L127.588 102.99L128.147 100.904L130.847 100.799L130.08 103.658L133.191 104.491L132.611 106.655L129.501 105.822L128.01 111.385Z" fill="black"/>
<path d="M33.4271 52.9464C35.7738 52.6834 37.5984 51.9169 38.9008 50.6467C40.2092 49.3546 41.2145 47.4417 41.9169 44.9078L50.2258 47.1341L44.0219 70.2874L39.7854 69.1522L45.0213 49.6115L46.4871 47.2939L45.3705 46.9947C44.8386 48.5418 44.2888 49.8494 43.721 50.9175C43.1751 51.9915 42.465 53.0214 41.5907 54.0074C40.7222 54.9715 39.6431 55.7148 38.3532 56.2375C37.0692 56.7382 35.5715 57.0291 33.8602 57.1103L33.4271 52.9464ZM51.1031 61.2026L68.0164 65.7345L67.1453 68.9858L50.2319 64.4539L51.1031 61.2026ZM83.7588 56.1193C85.0724 56.4713 86.2342 56.8647 87.2441 57.2995C88.2758 57.7403 89.2825 58.362 90.2642 59.1648C91.2518 59.9456 92.0063 60.8518 92.5278 61.8832C93.0551 62.8928 93.3689 64.1737 93.4693 65.7259C93.5696 67.2781 93.3617 69.0175 92.8454 70.9442C92.3292 72.8709 91.6395 74.4813 90.7765 75.7754C89.9135 77.0694 88.9984 78.0327 88.031 78.6652C87.0696 79.2759 85.9631 79.6834 84.7115 79.8877C83.46 80.0921 82.2773 80.1272 81.1634 79.993C80.0714 79.8647 78.8685 79.6245 77.5549 79.2725L69.4759 77.1077L75.6798 53.9545L83.7588 56.1193ZM78.5405 75.5943C79.5257 75.8583 80.3446 76.0425 80.9971 76.1469C81.6716 76.2572 82.433 76.2618 83.2814 76.1606C84.1299 76.0594 84.8434 75.8048 85.4221 75.3966C86.0286 74.9725 86.62 74.2979 87.1964 73.3729C87.7786 72.426 88.2604 71.241 88.6417 69.8178C88.9644 68.6136 89.1474 67.5363 89.1909 66.5859C89.2344 65.6354 89.1324 64.8337 88.885 64.1807C88.6434 63.5059 88.3506 62.9346 88.0066 62.467C87.6626 61.9993 87.1718 61.598 86.5341 61.2628C85.9023 60.9058 85.3186 60.6321 84.783 60.4416C84.2532 60.2293 83.5833 60.0146 82.7732 59.7975L78.9307 58.7679L74.698 74.5647L78.5405 75.5943ZM108.611 87.594L108.378 78.8726L98.9858 76.3559L94.4236 83.7925L90.1542 82.6485L103.353 61.3696L112.056 63.7016L112.881 88.738L108.611 87.594ZM101.055 72.968L108.247 74.8952L107.956 63.7646L106.873 63.4742L101.055 72.968ZM132.789 69.257L137.321 70.4713L124.732 83.4306L122.612 91.3454L118.375 90.2102L120.496 82.2954L116.073 64.7778L120.605 65.9922L123.392 77.7916L122.715 80.3204L123.798 80.6108L124.476 78.082L132.789 69.257Z" fill="black"/>
</g>
<defs>
<clipPath id="clip0_1018_18113">
<rect x="33.6465" width="130" height="130" rx="65" transform="rotate(15 33.6465 0)" fill="white"/>
</clipPath>
</defs>
</svg>
