<svg width="32" height="16" viewBox="0 0 32 16" fill="none" xmlns="http://www.w3.org/2000/svg">
<path d="M24.2914 0C25.7454 0 27.049 0.352941 28.2021 1.05882C29.3803 1.73856 30.3079 2.67974 30.9847 3.88235C31.6616 5.08497 32 6.44445 32 7.96079C32 9.47712 31.6616 10.8497 30.9847 12.0784C30.3079 13.3072 29.3803 14.2745 28.2021 14.9804C27.049 15.6601 25.7454 16 24.2914 16C22.3361 16 20.7192 15.5817 19.4407 14.7451C18.1872 13.8824 17.0466 12.6928 16.0188 11.1765C14.991 12.6928 13.8504 13.8824 12.5969 14.7451C11.3435 15.5817 9.7266 16 7.74618 16C6.29221 16 4.97611 15.6601 3.79789 14.9804C2.61966 14.2745 1.69213 13.3203 1.01528 12.1176C0.338425 10.8889 0 9.51634 0 8C0 6.48366 0.338425 5.12418 1.01528 3.92157C1.69213 2.69281 2.61966 1.73856 3.79789 1.05882C4.97611 0.352941 6.29221 0 7.74618 0C9.7266 0 11.3435 0.431372 12.5969 1.29412C13.8504 2.13072 14.991 3.30719 16.0188 4.82353C17.0466 3.30719 18.1872 2.13072 19.4407 1.29412C20.7192 0.431372 22.3361 0 24.2914 0ZM8.08461 12.3529C9.41324 12.3529 10.5163 11.9869 11.3937 11.2549C12.2961 10.4967 13.1861 9.41177 14.0635 8C13.1861 6.58824 12.2961 5.51634 11.3937 4.78431C10.5163 4.02614 9.41324 3.64706 8.08461 3.64706C6.83118 3.64706 5.79083 4.06536 4.96357 4.90196C4.16138 5.71242 3.76028 6.7451 3.76028 8C3.76028 9.2549 4.16138 10.3007 4.96357 11.1373C5.79083 11.9477 6.83118 12.3529 8.08461 12.3529ZM23.9154 12.3529C25.1438 12.3529 26.1716 11.9346 26.9988 11.098C27.8261 10.2614 28.2397 9.21569 28.2397 7.96079C28.2397 6.73203 27.8261 5.71242 26.9988 4.90196C26.1716 4.06536 25.1438 3.64706 23.9154 3.64706C22.5868 3.64706 21.4712 4.02614 20.5687 4.78431C19.6913 5.51634 18.8265 6.58824 17.9741 8C18.8265 9.41177 19.6913 10.4967 20.5687 11.2549C21.4712 11.9869 22.5868 12.3529 23.9154 12.3529Z" fill="white"/>
</svg>
