<svg width="56" height="56" viewBox="0 0 56 56" fill="none" xmlns="http://www.w3.org/2000/svg">
<path d="M0 28C0 12.536 12.536 0 28 0C43.464 0 56 12.536 56 28C56 43.464 43.464 56 28 56C12.536 56 0 43.464 0 28Z" fill="white"/>
<path d="M18 19H26.0308V26.7527C26.0308 29.1398 25.4256 31.1117 24.2154 32.6685C23.0256 34.2253 21.2821 35.3358 18.9846 36L18.0308 33.0733C18.8103 32.8034 19.4564 32.5128 19.9692 32.2015C20.4821 31.9109 20.8923 31.5684 21.2 31.174C21.5077 30.8004 21.7231 30.3645 21.8462 29.8663C21.9692 29.3681 22.0308 28.7869 22.0308 28.1227H18V19ZM29.9692 19H38V26.7527C38 29.1398 37.3949 31.1117 36.1846 32.6685C34.9949 34.2253 33.2513 35.3358 30.9538 36L30 33.0733C30.7795 32.8034 31.4256 32.5128 31.9385 32.2015C32.4513 31.9109 32.8615 31.5684 33.1692 31.174C33.4769 30.8004 33.6923 30.3645 33.8154 29.8663C33.9385 29.3681 34 28.7869 34 28.1227H29.9692V19Z" fill="black"/>
</svg>
