<svg width="25" height="24" viewBox="0 0 25 24" fill="none" xmlns="http://www.w3.org/2000/svg">
<g clip-path="url(#clip0_1075_98080)">
<path d="M12.5005 0.480469C6.13807 0.480469 0.980469 5.63807 0.980469 12.0005C0.980469 18.3629 6.13807 23.5205 12.5005 23.5205C18.8629 23.5205 24.0205 18.3629 24.0205 12.0005C24.0205 5.63807 18.8629 0.480469 12.5005 0.480469ZM17.1865 9.91727C17.1913 10.0157 17.1925 10.1141 17.1925 10.2101C17.1925 13.2101 14.9113 16.6673 10.7377 16.6673C9.50442 16.6693 8.29683 16.3151 7.26007 15.6473C7.43647 15.6689 7.61767 15.6773 7.80127 15.6773C8.86447 15.6773 9.84247 15.3161 10.6189 14.7065C10.1457 14.6972 9.68727 14.5405 9.3074 14.2583C8.92753 13.9761 8.64517 13.5824 8.49967 13.1321C8.83946 13.1967 9.18949 13.1831 9.52327 13.0925C9.00973 12.9886 8.54791 12.7104 8.21612 12.3049C7.88433 11.8994 7.703 11.3916 7.70287 10.8677V10.8401C8.00887 11.0093 8.35927 11.1125 8.73127 11.1245C8.24983 10.804 7.90901 10.3117 7.77852 9.74823C7.64803 9.18478 7.73773 8.59277 8.02927 8.09327C8.59922 8.79407 9.30998 9.36737 10.1156 9.77604C10.9211 10.1847 11.8035 10.4197 12.7057 10.4657C12.591 9.97884 12.6403 9.46776 12.8461 9.01188C13.0518 8.55599 13.4024 8.18086 13.8434 7.94479C14.2843 7.70871 14.7909 7.62494 15.2843 7.70648C15.7778 7.78801 16.2305 8.0303 16.5721 8.39567C17.0799 8.2952 17.5668 8.10893 18.0121 7.84487C17.8428 8.37063 17.4885 8.81708 17.0149 9.10127C17.4647 9.04709 17.9039 8.92616 18.3181 8.74247C18.0139 9.19834 17.6306 9.59619 17.1865 9.91727Z" fill="white"/>
</g>
<defs>
<clipPath id="clip0_1075_98080">
<rect width="24" height="24" fill="white" transform="translate(0.5)"/>
</clipPath>
</defs>
</svg>
