<svg width="56" height="32" viewBox="0 0 56 32" fill="none" xmlns="http://www.w3.org/2000/svg">
<path d="M32.1591 0V19.6018H28.7181V0H32.1591ZM38.4745 0V2.69256H22.458V0H38.4745Z" fill="white"/>
<path d="M40.8128 0H47.9297C49.459 0 50.7627 0.22438 51.8406 0.67314C52.9185 1.1219 53.743 1.78606 54.3142 2.66563C54.8946 3.53623 55.1848 4.61325 55.1848 5.89671C55.1848 6.875 55.0006 7.73662 54.6321 8.48156C54.2635 9.22651 53.743 9.85477 53.0705 10.3664C52.3979 10.869 51.5964 11.2594 50.6659 11.5376L49.6157 12.0357H43.2174L43.1897 9.35665H47.985C48.8141 9.35665 49.5051 9.21304 50.0579 8.92584C50.6107 8.63863 51.0252 8.24821 51.3016 7.75457C51.5872 7.25196 51.73 6.68652 51.73 6.05826C51.73 5.37614 51.5918 4.78378 51.3154 4.28117C51.0483 3.76958 50.6337 3.37916 50.0717 3.10991C49.5097 2.83168 48.7957 2.69256 47.9297 2.69256H44.2814V19.6018H40.8128V0ZM52.2966 19.6018L47.5704 10.7972L51.2049 10.7837L56.0002 19.4268V19.6018H52.2966Z" fill="white"/>
<path fill-rule="evenodd" clip-rule="evenodd" d="M5.38622 0.448392H0.460264V5.24729H5.38622V0.448392ZM0 0V5.69568H5.84649V0H0Z" fill="white"/>
<path fill-rule="evenodd" clip-rule="evenodd" d="M5.38623 14.3546H0.460264V19.1535H5.38623V14.3546ZM0 13.9062V19.6019H5.8465V13.9062H0Z" fill="white"/>
<path fill-rule="evenodd" clip-rule="evenodd" d="M19.644 0.448392H14.7181V5.24729H19.644V0.448392ZM14.2578 0V5.69568H20.1043V0H14.2578Z" fill="white"/>
<path fill-rule="evenodd" clip-rule="evenodd" d="M19.646 14.3546H14.72V19.1535H19.646V14.3546ZM14.2598 13.9062V19.6019H20.1063V13.9062H14.2598Z" fill="white"/>
<path fill-rule="evenodd" clip-rule="evenodd" d="M0.460265 14.1953L0.460273 19.1535H5.55118L9.74176 10.0995L0.460265 14.1953ZM0 13.9062L8.87601e-06 19.6019H5.84853L10.6626 9.20093L0 13.9062Z" fill="white"/>
<path fill-rule="evenodd" clip-rule="evenodd" d="M14.5554 0.448392L10.3662 9.48557L19.6459 5.40363V0.448392H14.5554ZM20.1061 5.69315L9.44531 10.3826L14.2582 0H20.1061V5.69315Z" fill="white"/>
<path fill-rule="evenodd" clip-rule="evenodd" d="M5.55176 0.448392H0.460264V5.41202L9.74324 9.49091L5.55176 0.448392ZM5.84893 0H0V5.70167L10.6637 10.3873L5.84893 0Z" fill="white"/>
<path fill-rule="evenodd" clip-rule="evenodd" d="M9.44434 9.19971L14.2551 19.6018H20.1055V13.9004L9.44434 9.19971ZM10.3644 10.0975L14.5525 19.1534H19.6453V14.1896L10.3644 10.0975Z" fill="white"/>
<path fill-rule="evenodd" clip-rule="evenodd" d="M9.7505 9.82242L5.39355 5.54991L5.72008 5.23389L10.077 9.50641L9.7505 9.82242Z" fill="white"/>
<path fill-rule="evenodd" clip-rule="evenodd" d="M10.3524 9.82241L14.6963 5.56539L14.3699 5.24927L10.0259 9.50629L10.3524 9.82241Z" fill="white"/>
<path fill-rule="evenodd" clip-rule="evenodd" d="M10.3536 9.77742L14.7568 14.0675L14.4314 14.3845L10.0281 10.0945L10.3536 9.77742Z" fill="white"/>
<path fill-rule="evenodd" clip-rule="evenodd" d="M9.75069 9.77709L5.40137 14.0023L5.72637 14.3198L10.0757 10.0946L9.75069 9.77709Z" fill="white"/>
<rect x="14.5479" y="14.1577" width="5.32689" height="5.18949" fill="white"/>
<rect x="14.5479" y="0.253174" width="5.32689" height="5.18949" fill="white"/>
<rect x="0.259766" y="14.1577" width="5.32689" height="5.18949" fill="white"/>
<rect x="0.259766" y="0.253174" width="5.32689" height="5.18949" fill="white"/>
<path d="M2.77325 31.9999C2.22826 31.9999 1.70051 31.9215 1.19001 31.7647C0.686414 31.6013 0.289742 31.3922 0 31.1374L0.382874 30.3729C0.658819 30.6082 1.01065 30.8009 1.43836 30.9512C1.87298 31.0949 2.31794 31.1668 2.77325 31.1668C3.37343 31.1668 3.82184 31.0721 4.11848 30.8826C4.41512 30.6866 4.56344 30.4285 4.56344 30.1083C4.56344 29.8731 4.48066 29.6836 4.31509 29.5399C4.15642 29.3896 3.95636 29.2752 3.71491 29.1968C3.48036 29.1184 3.14577 29.0302 2.71116 28.9322C2.16617 28.8081 1.72466 28.6839 1.38662 28.5598C1.05549 28.4356 0.769197 28.2461 0.527745 27.9913C0.293192 27.73 0.175915 27.3804 0.175915 26.9426C0.175915 26.5767 0.275945 26.2468 0.476005 25.9527C0.682964 25.6587 0.993403 25.4235 1.40732 25.2471C1.82124 25.0707 2.33519 24.9824 2.94916 24.9824C3.37688 24.9824 3.7977 25.0347 4.21161 25.1393C4.62553 25.2438 4.98081 25.3941 5.27745 25.5901L4.93597 26.3742C4.63243 26.1912 4.30819 26.054 3.96326 25.9625C3.61833 25.8645 3.2803 25.8155 2.94916 25.8155C2.36278 25.8155 1.92127 25.9168 1.62463 26.1193C1.33488 26.3219 1.19001 26.5833 1.19001 26.9034C1.19001 27.1386 1.2728 27.3314 1.43836 27.4817C1.60393 27.6254 1.80744 27.7398 2.04889 27.8247C2.29724 27.9031 2.63183 27.9881 3.05264 28.0795C3.59764 28.2037 4.0357 28.3278 4.36683 28.452C4.69797 28.5761 4.98081 28.7656 5.21536 29.0204C5.45682 29.2752 5.57754 29.6183 5.57754 30.0495C5.57754 30.4089 5.47406 30.7388 5.2671 31.0394C5.06014 31.3334 4.74626 31.5687 4.32544 31.7451C3.90462 31.915 3.38723 31.9999 2.77325 31.9999Z" fill="#727272"/>
<path d="M10.2765 31.9803C9.73149 31.9803 9.24168 31.866 8.80707 31.6373C8.37246 31.4086 8.03097 31.0949 7.78262 30.6964C7.54117 30.2913 7.42045 29.8339 7.42045 29.3242C7.42045 28.8146 7.54117 28.3605 7.78262 27.9619C8.03097 27.5568 8.37246 27.2432 8.80707 27.021C9.24168 26.7923 9.73149 26.678 10.2765 26.678C10.8215 26.678 11.3078 26.7923 11.7355 27.021C12.1702 27.2432 12.5082 27.5568 12.7496 27.9619C12.998 28.3605 13.1222 28.8146 13.1222 29.3242C13.1222 29.8339 12.998 30.2913 12.7496 30.6964C12.5082 31.0949 12.1702 31.4086 11.7355 31.6373C11.3078 31.866 10.8215 31.9803 10.2765 31.9803ZM10.2765 31.157C10.6283 31.157 10.9422 31.0819 11.2181 30.9316C11.501 30.7748 11.7217 30.5592 11.8804 30.2847C12.0391 30.0038 12.1184 29.6836 12.1184 29.3242C12.1184 28.9649 12.0391 28.648 11.8804 28.3736C11.7217 28.0926 11.501 27.877 11.2181 27.7267C10.9422 27.5764 10.6283 27.5013 10.2765 27.5013C9.92465 27.5013 9.60731 27.5764 9.32447 27.7267C9.04852 27.877 8.82777 28.0926 8.6622 28.3736C8.50353 28.648 8.4242 28.9649 8.4242 29.3242C8.4242 29.6836 8.50353 30.0038 8.6622 30.2847C8.82777 30.5592 9.04852 30.7748 9.32447 30.9316C9.60731 31.0819 9.92465 31.157 10.2765 31.157Z" fill="#727272"/>
<path d="M15.4791 24.6492H16.4725V31.9215H15.4791V24.6492Z" fill="#727272"/>
<path d="M24.4642 26.727V31.9215H23.5225V31.1374C23.3224 31.4053 23.0568 31.6144 22.7257 31.7647C22.4015 31.9084 22.0462 31.9803 21.6599 31.9803C20.9286 31.9803 20.3526 31.7908 19.9318 31.4118C19.5109 31.0263 19.3005 30.4612 19.3005 29.7163V26.727H20.2939V29.6085C20.2939 30.1116 20.4216 30.4938 20.6768 30.7552C20.9321 31.01 21.2977 31.1374 21.7737 31.1374C22.298 31.1374 22.7119 30.9871 23.0154 30.6866C23.319 30.386 23.4708 29.9613 23.4708 29.4125V26.727H24.4642Z" fill="#727272"/>
<path d="M30.4221 31.6177C30.2772 31.7353 30.0978 31.8268 29.884 31.8921C29.6701 31.9509 29.4494 31.9803 29.2217 31.9803C28.6698 31.9803 28.2421 31.8398 27.9386 31.5589C27.635 31.2779 27.4832 30.8761 27.4832 30.3533V27.5013H26.5519V26.727H27.4832V25.5901H28.4767V26.727H30.0495V27.5013H28.4767V30.3141C28.4767 30.5951 28.5491 30.8107 28.694 30.961C28.8457 31.1113 29.0596 31.1864 29.3355 31.1864C29.6391 31.1864 29.8978 31.1048 30.1116 30.9414L30.4221 31.6177Z" fill="#727272"/>
<path d="M32.6061 26.727H33.5995V31.9215H32.6061V26.727ZM33.1028 25.7273C32.9097 25.7273 32.7475 25.6685 32.6165 25.5509C32.4923 25.4333 32.4302 25.2895 32.4302 25.1197C32.4302 24.9498 32.4923 24.806 32.6165 24.6884C32.7475 24.5643 32.9097 24.5022 33.1028 24.5022C33.296 24.5022 33.4547 24.561 33.5788 24.6786C33.7099 24.7897 33.7754 24.9302 33.7754 25.1001C33.7754 25.2765 33.7099 25.4268 33.5788 25.5509C33.4547 25.6685 33.296 25.7273 33.1028 25.7273Z" fill="#727272"/>
<path d="M38.8283 31.9803C38.2833 31.9803 37.7935 31.866 37.3589 31.6373C36.9243 31.4086 36.5828 31.0949 36.3345 30.6964C36.093 30.2913 35.9723 29.8339 35.9723 29.3242C35.9723 28.8146 36.093 28.3605 36.3345 27.9619C36.5828 27.5568 36.9243 27.2432 37.3589 27.021C37.7935 26.7923 38.2833 26.678 38.8283 26.678C39.3733 26.678 39.8597 26.7923 40.2874 27.021C40.722 27.2432 41.06 27.5568 41.3015 27.9619C41.5498 28.3605 41.674 28.8146 41.674 29.3242C41.674 29.8339 41.5498 30.2913 41.3015 30.6964C41.06 31.0949 40.722 31.4086 40.2874 31.6373C39.8597 31.866 39.3733 31.9803 38.8283 31.9803ZM38.8283 31.157C39.1801 31.157 39.494 31.0819 39.77 30.9316C40.0528 30.7748 40.2736 30.5592 40.4322 30.2847C40.5909 30.0038 40.6702 29.6836 40.6702 29.3242C40.6702 28.9649 40.5909 28.648 40.4322 28.3736C40.2736 28.0926 40.0528 27.877 39.77 27.7267C39.494 27.5764 39.1801 27.5013 38.8283 27.5013C38.4765 27.5013 38.1591 27.5764 37.8763 27.7267C37.6004 27.877 37.3796 28.0926 37.214 28.3736C37.0554 28.648 36.976 28.9649 36.976 29.3242C36.976 29.6836 37.0554 30.0038 37.214 30.2847C37.3796 30.5592 37.6004 30.7748 37.8763 30.9316C38.1591 31.0819 38.4765 31.157 38.8283 31.157Z" fill="#727272"/>
<path d="M46.9594 26.678C47.6561 26.678 48.208 26.8708 48.615 27.2563C49.029 27.6352 49.2359 28.1939 49.2359 28.9322V31.9215H48.2425V29.04C48.2425 28.5369 48.1149 28.1579 47.8596 27.9031C47.6044 27.6483 47.2388 27.5209 46.7628 27.5209C46.2247 27.5209 45.8004 27.6712 45.49 27.9717C45.1795 28.2658 45.0243 28.6905 45.0243 29.2458V31.9215H44.0309V26.727H44.9829V27.5111C45.183 27.2432 45.452 27.0374 45.7901 26.8936C46.135 26.7499 46.5248 26.678 46.9594 26.678Z" fill="#727272"/>
<path d="M53.6303 31.9803C53.1819 31.9803 52.7507 31.9248 52.3368 31.8137C51.9229 31.6961 51.5987 31.5491 51.3641 31.3726L51.778 30.6278C52.0195 30.7911 52.3127 30.9218 52.6576 31.0198C53.0025 31.1178 53.3509 31.1668 53.7028 31.1668C54.572 31.1668 55.0066 30.9316 55.0066 30.4612C55.0066 30.3043 54.948 30.1802 54.8307 30.0887C54.7134 29.9972 54.5651 29.9319 54.3857 29.8927C54.2133 29.847 53.9649 29.798 53.6407 29.7457C53.1992 29.6804 52.837 29.6052 52.5541 29.5203C52.2782 29.4353 52.0402 29.2916 51.8401 29.089C51.6401 28.8865 51.54 28.6022 51.54 28.2363C51.54 27.7659 51.747 27.3902 52.1609 27.1092C52.5748 26.8217 53.1302 26.678 53.8269 26.678C54.1926 26.678 54.5582 26.7205 54.9238 26.8054C55.2894 26.8904 55.5895 27.0047 55.8241 27.1484L55.3998 27.8933C54.9514 27.6189 54.4237 27.4817 53.8166 27.4817C53.3958 27.4817 53.075 27.547 52.8542 27.6777C52.6335 27.8084 52.5231 27.9815 52.5231 28.1971C52.5231 28.367 52.5852 28.501 52.7094 28.599C52.8335 28.697 52.9853 28.7689 53.1647 28.8146C53.3509 28.8603 53.6096 28.9126 53.9408 28.9714C54.3823 29.0433 54.7376 29.1217 55.0066 29.2066C55.2825 29.285 55.5171 29.4223 55.7103 29.6183C55.9034 29.8143 56 30.0887 56 30.4416C56 30.912 55.7861 31.2877 55.3584 31.5687C54.9376 31.8431 54.3616 31.9803 53.6303 31.9803Z" fill="#727272"/>
</svg>
