<svg width="32" height="32" viewBox="0 0 32 32" fill="none" xmlns="http://www.w3.org/2000/svg">
<path d="M15.9994 2.66699C19.622 2.66699 20.074 2.68033 21.4954 2.74699C22.9154 2.81366 23.882 3.03633 24.7327 3.36699C25.6127 3.70566 26.354 4.16433 27.0954 4.90433C27.7733 5.57085 28.298 6.37711 28.6327 7.26699C28.962 8.11633 29.186 9.08433 29.2527 10.5043C29.3154 11.9257 29.3327 12.3777 29.3327 16.0003C29.3327 19.623 29.3194 20.075 29.2527 21.4963C29.186 22.9163 28.962 23.883 28.6327 24.7337C28.2989 25.624 27.7742 26.4305 27.0954 27.0963C26.4286 27.7741 25.6224 28.2987 24.7327 28.6337C23.8834 28.963 22.9154 29.187 21.4954 29.2537C20.074 29.3163 19.622 29.3337 15.9994 29.3337C12.3767 29.3337 11.9247 29.3203 10.5034 29.2537C9.08335 29.187 8.11668 28.963 7.26602 28.6337C6.37578 28.2996 5.56939 27.7749 4.90335 27.0963C4.22522 26.4299 3.70059 25.6236 3.36602 24.7337C3.03535 23.8843 2.81268 22.9163 2.74602 21.4963C2.68335 20.075 2.66602 19.623 2.66602 16.0003C2.66602 12.3777 2.67935 11.9257 2.74602 10.5043C2.81268 9.08299 3.03535 8.11766 3.36602 7.26699C3.69966 6.37656 4.22442 5.57009 4.90335 4.90433C5.56958 4.22597 6.37592 3.7013 7.26602 3.36699C8.11668 3.03633 9.08202 2.81366 10.5034 2.74699C11.9247 2.68433 12.3767 2.66699 15.9994 2.66699ZM15.9994 9.33366C14.2312 9.33366 12.5355 10.036 11.2853 11.2863C10.0351 12.5365 9.33268 14.2322 9.33268 16.0003C9.33268 17.7684 10.0351 19.4641 11.2853 20.7144C12.5355 21.9646 14.2312 22.667 15.9994 22.667C17.7675 22.667 19.4632 21.9646 20.7134 20.7144C21.9636 19.4641 22.666 17.7684 22.666 16.0003C22.666 14.2322 21.9636 12.5365 20.7134 11.2863C19.4632 10.036 17.7675 9.33366 15.9994 9.33366ZM24.666 9.00033C24.666 8.5583 24.4904 8.13438 24.1779 7.82182C23.8653 7.50925 23.4414 7.33366 22.9994 7.33366C22.5573 7.33366 22.1334 7.50925 21.8208 7.82182C21.5083 8.13438 21.3327 8.5583 21.3327 9.00033C21.3327 9.44235 21.5083 9.86628 21.8208 10.1788C22.1334 10.4914 22.5573 10.667 22.9994 10.667C23.4414 10.667 23.8653 10.4914 24.1779 10.1788C24.4904 9.86628 24.666 9.44235 24.666 9.00033ZM15.9994 12.0003C17.0602 12.0003 18.0776 12.4218 18.8278 13.1719C19.5779 13.922 19.9994 14.9395 19.9994 16.0003C19.9994 17.0612 19.5779 18.0786 18.8278 18.8288C18.0776 19.5789 17.0602 20.0003 15.9994 20.0003C14.9385 20.0003 13.9211 19.5789 13.1709 18.8288C12.4208 18.0786 11.9994 17.0612 11.9994 16.0003C11.9994 14.9395 12.4208 13.922 13.1709 13.1719C13.9211 12.4218 14.9385 12.0003 15.9994 12.0003Z" fill="white"/>
</svg>
