<svg width="32" height="32" viewBox="0 0 32 32" fill="none" xmlns="http://www.w3.org/2000/svg">
<path d="M16.0006 0.640625C7.51743 0.640625 0.640625 7.51743 0.640625 16.0006C0.640625 24.4838 7.51743 31.3606 16.0006 31.3606C24.4838 31.3606 31.3606 24.4838 31.3606 16.0006C31.3606 7.51743 24.4838 0.640625 16.0006 0.640625ZM22.2486 13.223C22.255 13.3542 22.2566 13.4854 22.2566 13.6134C22.2566 17.6134 19.215 22.223 13.6502 22.223C12.0059 22.2258 10.3958 21.7535 9.01342 20.863C9.24862 20.8918 9.49023 20.903 9.73503 20.903C11.1526 20.903 12.4566 20.4214 13.4918 19.6086C12.861 19.5962 12.2497 19.3873 11.7432 19.0111C11.2367 18.6348 10.8602 18.1098 10.6662 17.5094C11.1193 17.5956 11.586 17.5775 12.031 17.4566C11.3463 17.3182 10.7305 16.9471 10.2882 16.4065C9.84577 15.8658 9.604 15.1888 9.60382 14.4902V14.4534C10.0118 14.679 10.479 14.8166 10.975 14.8326C10.3331 14.4053 9.87868 13.7489 9.7047 12.9976C9.53071 12.2464 9.65031 11.457 10.039 10.791C10.799 11.7254 11.7466 12.4898 12.8207 13.0347C13.8948 13.5796 15.0714 13.8929 16.2742 13.9542C16.1213 13.3051 16.1871 12.6237 16.4614 12.0158C16.7358 11.408 17.2032 10.9078 17.7911 10.593C18.3791 10.2783 19.0545 10.1666 19.7125 10.2753C20.3704 10.384 20.974 10.7071 21.4294 11.1942C22.1065 11.0603 22.7558 10.8119 23.3494 10.4598C23.1238 11.1608 22.6513 11.7561 22.0198 12.135C22.6196 12.0628 23.2052 11.9015 23.7574 11.6566C23.3518 12.2645 22.8408 12.7949 22.2486 13.223V13.223Z" fill="white"/>
</svg>
