<svg width="9" height="13" viewBox="0 0 9 13" fill="none" xmlns="http://www.w3.org/2000/svg">
<path d="M3.648 8.46424C3.648 8.04824 3.71733 7.68558 3.856 7.37624C3.99467 7.06691 4.16533 6.78958 4.368 6.54424C4.58133 6.29891 4.81067 6.07491 5.056 5.87224C5.30133 5.65891 5.53067 5.45091 5.744 5.24824C5.95733 5.03491 6.128 4.81091 6.256 4.57624C6.39467 4.34158 6.464 4.06958 6.464 3.76024C6.464 3.24824 6.26133 2.83224 5.856 2.51224C5.45067 2.19224 4.89067 2.03224 4.176 2.03224C3.536 2.03224 2.98133 2.13891 2.512 2.35224C2.04267 2.56558 1.64267 2.88024 1.312 3.29624L0.144 2.46424C0.592 1.89891 1.16267 1.46158 1.856 1.15224C2.54933 0.832244 3.36 0.672244 4.288 0.672244C5.056 0.672244 5.72267 0.789577 6.288 1.02424C6.85333 1.24824 7.29067 1.57358 7.6 2.00024C7.92 2.41624 8.08 2.92291 8.08 3.52024C8.08 3.96824 8.01067 4.35224 7.872 4.67224C7.73333 4.99224 7.55733 5.27491 7.344 5.52024C7.13067 5.76558 6.90133 5.99491 6.656 6.20824C6.42133 6.42158 6.19733 6.63491 5.984 6.84824C5.77067 7.06158 5.59467 7.29624 5.456 7.55224C5.31733 7.80824 5.248 8.11224 5.248 8.46424H3.648ZM4.464 12.0962C4.16533 12.0962 3.91467 11.9949 3.712 11.7922C3.52 11.5896 3.424 11.3496 3.424 11.0722C3.424 10.7736 3.52 10.5282 3.712 10.3362C3.91467 10.1442 4.16533 10.0482 4.464 10.0482C4.76267 10.0482 5.008 10.1442 5.2 10.3362C5.392 10.5282 5.488 10.7736 5.488 11.0722C5.488 11.3496 5.392 11.5896 5.2 11.7922C5.008 11.9949 4.76267 12.0962 4.464 12.0962Z" fill="black"/>
</svg>
