<svg width="102" height="20" viewBox="0 0 102 20" fill="none" xmlns="http://www.w3.org/2000/svg">
<path d="M10.2329 0.0416505C9.93198 0.0166592 9.6283 0 9.32185 0C9.01539 0 8.70893 0.0166592 8.40804 0.0416505V1.98542C8.40804 10.3159 8.10438 13.9701 6.88412 19.6765C8.47668 20.1078 10.1559 20.1078 11.7484 19.6765C10.5365 14.0118 10.2329 10.3436 10.2329 1.98265V0.0416505Z" fill="black"/>
<path d="M18.6298 10.7046C18.6275 9.14278 18.2298 7.6068 17.4735 6.23894C16.7172 4.87109 15.6267 3.71561 14.3032 2.87955L14.3366 5.11489C15.4955 6.14116 16.3072 7.49981 16.6604 9.00429C17.0135 10.5088 16.8908 12.0853 16.3091 13.5175C13.7683 11.0184 13.2919 7.86115 13.1999 4.35404L13.1804 2.27421C12.5925 2.00789 11.978 1.80406 11.3473 1.66609V3.33217C11.389 9.6633 12.0493 14.4394 14.969 18.0659C16.8236 16.645 18.0729 14.5798 18.4682 12.2818C18.4961 12.1125 18.5434 11.7431 18.5434 11.7265C18.5826 11.39 18.6021 11.0516 18.6019 10.7129L18.6298 10.7046Z" fill="black"/>
<path d="M7.26859 3.33217V1.66609C6.64245 1.80589 6.03271 2.01064 5.44934 2.27699L5.42986 4.35682C5.33792 7.86393 4.87265 11.0212 2.3207 13.5203C1.73895 12.0881 1.61626 10.5115 1.96943 9.00706C2.3226 7.50258 3.13433 6.14394 4.29319 5.11766L4.32662 2.88233C3.00307 3.71839 1.9126 4.87387 1.15629 6.24172C0.399975 7.60958 0.00227319 9.14556 1.36378e-06 10.7074C-0.000187965 11.0461 0.0193358 11.3845 0.0584959 11.7209C0.0584959 11.7376 0.105863 12.1069 0.133723 12.2763C0.528992 14.5742 1.77838 16.6394 3.63292 18.0604C6.56655 14.4394 7.2268 9.66053 7.26859 3.33217Z" fill="black"/>
<path d="M42.9374 7.01145C41.6001 7.01145 40.5944 7.52238 40.1012 8.37487H39.9926V7.26414H37.5354V18.9517H39.9843V15.2558H40.0929C40.586 16.1083 41.5917 16.6192 42.929 16.6192C45.4364 16.6192 47.4367 14.4894 47.4367 11.8153C47.4367 9.14126 45.4531 7.01145 42.9374 7.01145ZM42.4443 14.3089C41.947 14.3155 41.459 14.1746 41.0423 13.904C40.6255 13.6335 40.2989 13.2455 40.104 12.7895C39.9091 12.3334 39.8547 11.8299 39.9476 11.343C40.0406 10.856 40.2767 10.4076 40.626 10.0547C40.9753 9.7019 41.422 9.46055 41.9092 9.36138C42.3965 9.26222 42.9024 9.30973 43.3625 9.49787C43.8226 9.686 44.2162 10.0063 44.4932 10.4179C44.7702 10.8296 44.9182 11.3141 44.9182 11.8098C44.9245 12.1369 44.8651 12.462 44.7434 12.7658C44.6218 13.0697 44.4403 13.3462 44.2098 13.5791C43.9792 13.812 43.7042 13.9966 43.401 14.1219C43.0978 14.2472 42.7725 14.3108 42.4443 14.3089Z" fill="black"/>
<path d="M97.7123 7.70009C96.3194 7.70009 95.205 8.25545 94.5503 9.20512H94.4388C94.6227 7.47517 95.5532 6.63657 97.5953 6.33668L101.153 5.80353V3.46546L97.3613 4.02082C93.8566 4.52897 92.1766 6.45052 92.1766 9.91598C92.1766 12.4151 92.3326 13.2148 92.7617 14.1617C93.4415 15.6834 95.1214 16.6164 97.1524 16.6164C99.8882 16.6164 102 14.6032 102 11.968C102.008 9.44115 100.262 7.70009 97.7123 7.70009ZM97.1273 14.295C95.7343 14.295 94.7035 13.3092 94.7035 11.9708C94.7035 10.6324 95.7204 9.63275 97.1273 9.63275C97.4412 9.62195 97.7541 9.67425 98.0473 9.78654C98.3406 9.89883 98.6081 10.0688 98.834 10.2863C99.0599 10.5039 99.2396 10.7645 99.3623 11.0527C99.485 11.3409 99.5483 11.6508 99.5483 11.9639C99.5483 12.277 99.485 12.5868 99.3623 12.8751C99.2396 13.1633 99.0599 13.4239 98.834 13.6414C98.6081 13.859 98.3406 14.0289 98.0473 14.1412C97.7541 14.2535 97.4412 14.3058 97.1273 14.295Z" fill="black"/>
<path d="M34.9778 4.53171L32.2197 10.2964L28.4642 4.53171H25.5334L30.9855 12.876L30.8351 13.1926C30.601 13.698 30.2779 13.9701 29.5703 13.9701H27.6424V16.3831H29.8433C31.5149 16.3831 32.203 15.9416 32.9079 14.4893L37.7304 4.54281L34.9778 4.53171Z" fill="black"/>
<path d="M61.595 7.28357L61.1771 12.9316C61.1131 13.8146 60.8261 14.1395 60.1491 14.1395H59.5446V16.4387H61.0016C62.6453 16.4387 63.3725 15.6584 63.4923 14.0368L63.8126 9.64663H66.8271V16.361H69.2955V7.28357H61.595Z" fill="black"/>
<path d="M75.7032 9.34675C76.1582 9.34521 76.6043 9.47255 76.9895 9.71393C77.3747 9.95531 77.6832 10.3008 77.8791 10.7102L80.066 9.8549C79.4531 8.12773 77.7203 7.01145 75.6503 7.01145C74.372 7.01145 73.1461 7.51757 72.2422 8.41847C71.3383 9.31938 70.8305 10.5413 70.8305 11.8153C70.8305 13.0894 71.3383 14.3113 72.2422 15.2122C73.1461 16.1131 74.372 16.6192 75.6503 16.6192C77.7203 16.6192 79.4531 15.5085 80.066 13.7758L77.8791 12.9177C77.6839 13.3278 77.3756 13.6741 76.9903 13.916C76.605 14.1579 76.1586 14.2855 75.7032 14.2839C74.3102 14.2839 73.3045 13.2565 73.3045 11.8153C73.3045 10.3742 74.3102 9.34675 75.7032 9.34675Z" fill="black"/>
<path d="M87.7943 7.26974L83.9887 13.04V7.26974H81.5398V16.361H84.2506L88.0283 10.6297V16.361H90.4772V7.26974H87.7943Z" fill="black"/>
<path d="M55.8615 8.37487H55.7556C55.2597 7.52238 54.2568 7.01145 52.9167 7.01145C50.4093 7.01145 48.409 9.14126 48.409 11.8153C48.409 14.4894 50.4038 16.6192 52.9167 16.6192C54.2568 16.6192 55.2597 16.1083 55.7556 15.2558H55.8615V16.3665H58.3104V7.26969H55.8615V8.37487ZM53.4154 14.3089C52.9172 14.3205 52.4268 14.1838 52.0068 13.9164C51.5869 13.6489 51.2564 13.2628 51.0576 12.8073C50.8588 12.3517 50.8008 11.8475 50.8908 11.359C50.9808 10.8704 51.2149 10.4197 51.5631 10.0643C51.9113 9.70892 52.3579 9.46505 52.8458 9.3638C53.3338 9.26255 53.8408 9.30852 54.3024 9.49584C54.764 9.68315 55.1591 10.0033 55.4373 10.4155C55.7155 10.8276 55.8642 11.313 55.8643 11.8098C55.8713 12.135 55.8132 12.4583 55.6934 12.7609C55.5735 13.0634 55.3944 13.3391 55.1663 13.5719C54.9383 13.8046 54.666 13.9896 54.3654 14.1162C54.0647 14.2427 53.7418 14.3082 53.4154 14.3089Z" fill="black"/>
</svg>
