<svg width="120" height="120" viewBox="0 0 120 120" fill="none" xmlns="http://www.w3.org/2000/svg">
<path fill-rule="evenodd" clip-rule="evenodd" d="M108.423 78.8916C109.821 49.9711 84.6081 17.4024 50.2357 13.3767L50.2944 12.9814C84.1802 12.9814 110.157 44.0129 110.157 68.4939C110.125 73.5901 109.718 76.7476 108.992 79.04L108.423 78.8916ZM106.37 82.5678C104.115 85.2927 101.28 88.0364 97.9579 90.641C91.8466 55.8722 66.0183 25.4693 47.7578 16.5954L47.3667 16.865C65.731 31.774 87.6343 60.7298 96.1522 92.005C92.0773 94.9758 87.3669 97.7101 82.1627 99.9299C64.8334 80.3812 48.6775 42.68 43.4711 18.756L42.9416 18.9137C43.059 42.1364 59.7266 81.5595 80.0529 100.796C75.5418 102.556 70.6909 103.929 65.5968 104.747C46.1126 97.1116 32.2436 72.6565 32.2436 47.605C32.2436 31.2512 37.2843 21.1345 38.2595 19.0641L37.8443 18.9012C36.6646 20.6667 29.2803 30.7782 29.2803 48.4338C29.2803 76.7507 43.3977 98.3947 62.1405 105.211C55.7283 105.901 48.9805 105.692 42.0576 104.278L41.9181 104.71C43.9231 105.44 50.7254 108.264 61.1024 108.264C84.5734 108.264 100.44 93.8389 106.827 82.8738L106.37 82.5678Z" fill="#626262"/>
<path fill-rule="evenodd" clip-rule="evenodd" d="M58.756 2.7627C40.9632 2.7627 20.1001 15.4653 20.1001 27.0767C20.1001 31.5681 24.2536 35.3625 32.8501 35.3625C52.8062 35.3625 71.3467 21.8 71.3467 11.2539C71.3467 5.70444 65.9589 2.7627 58.756 2.7627ZM65.8593 10.9261C65.8593 19.8157 48.6023 30.6823 34.1766 30.6823C27.8032 30.6823 24.3595 28.2011 24.3595 24.1069C24.3595 15.0898 41.8126 4.40783 55.3438 4.40783C64.1658 4.40783 65.8593 8.84845 65.8593 10.9261Z" fill="#989898"/>
<path fill-rule="evenodd" clip-rule="evenodd" d="M13.0104 32.4528C12.5102 33.3086 10.5073 37.188 10.5073 41.1629C10.5073 48.5349 18.0374 55.3789 31.8874 55.3789C58.5315 55.3789 89.3145 35.9785 89.3145 17.9702C89.3145 9.88665 81.5789 5.49167 76.2079 4.58301L76.1073 4.89834C77.7777 5.42113 83.8974 8.23529 83.8974 15.4361C83.8974 29.7849 56.7185 49.3357 29.6455 49.3357C19.281 49.3357 12.7513 44.2748 12.7513 36.9028C12.7513 34.5709 13.2421 33.0347 13.3721 32.5897L13.0104 32.4528Z" fill="#CDCDCD"/>
<path fill-rule="evenodd" clip-rule="evenodd" d="M100.3 19.3164C101.031 19.8651 105.42 23.4832 105.42 30.3251C105.42 53.6537 68.4686 76.5933 35.8013 76.5933C16.3202 76.5933 7.43958 67.0782 7.83281 58.6295H8.18199C8.94538 63.0173 15.2706 70.8685 32.321 70.8685C65.0292 70.8685 101.549 47.1323 101.549 26.3357C101.549 22.7685 100.57 20.5456 100.016 19.5571L100.3 19.3164Z" fill="#A7A7A7"/>
<path fill-rule="evenodd" clip-rule="evenodd" d="M112.651 41.0957C112.804 41.5926 113.6 43.8258 113.6 47.3236C113.6 73.2744 76.2057 95.491 43.6831 95.491C26.9442 95.491 18.203 87.4479 16.3574 84.1814L16.6552 83.9636C21.2869 87.9707 30.4098 91.0151 41.0564 91.0151C69.7799 91.0151 112.64 69.3981 112.257 41.1901L112.651 41.0957Z" fill="#B1B1B1"/>
</svg>
