<svg width="120" height="120" viewBox="0 0 120 120" fill="none" xmlns="http://www.w3.org/2000/svg">
<g clip-path="url(#clip0_509_5418)">
<path d="M120.043 85.0247V35.1319C120.043 15.8897 104.336 0.227539 85.0446 0.227539H35.0143C15.7225 0.227539 0.0161133 15.8897 0.0161133 35.1319V85.0247C0.0161133 103.147 13.7023 117.913 31.4262 119.702L68.2171 89.9469H28.5097V75.6269L67.7703 43.6341H30.0803V29.9852H91.3272V44.3052L52.0666 76.298H91.3272V90.618L55.2052 119.926H85.0473C104.339 119.926 120.046 104.267 120.046 85.0247H120.043ZM149.88 22.3786H159.079C163.119 22.3786 166.035 24.8384 166.035 29.0895C166.035 33.1187 163.119 35.8003 159.079 35.5784H152.799V44.3052H149.882V22.3786H149.88ZM158.629 32.8941C161.546 32.8941 163.341 31.5519 163.341 28.8676C163.341 26.1832 161.548 24.8384 158.632 24.8384H152.799V32.8941H158.632H158.629ZM175.681 28.1965C179.722 28.1965 183.085 31.5519 183.085 36.2495C183.085 40.9498 179.719 44.5271 175.681 44.3052C171.641 44.3052 168.278 40.9498 168.278 36.2495C168.053 31.7765 171.419 28.1965 175.681 28.1965ZM175.681 42.2919C178.373 42.2919 180.391 40.0541 180.391 36.4741C180.391 32.8941 178.373 30.6562 175.681 30.6562H175.457C172.765 30.6562 170.747 32.8941 170.747 36.4741C170.747 40.0541 172.765 42.2919 175.457 42.2919H175.681ZM193.403 28.1965C196.993 28.1965 199.46 30.2097 199.685 33.5652H196.993C196.769 32.6695 196.544 31.7738 195.87 31.3273C195.201 30.6589 194.526 30.4343 193.627 30.4343H193.403C190.486 30.4343 188.693 33.1187 188.693 36.2495C188.693 39.383 190.264 42.2919 193.403 42.0673H193.627C194.526 42.0673 195.42 41.8427 195.872 41.1717C196.544 40.5033 196.993 39.8295 196.993 38.9338H199.685C199.236 42.2919 196.769 44.3052 193.403 44.3052C188.693 44.3052 185.999 40.7225 185.999 36.2495C185.999 31.7765 188.693 28.1965 193.403 28.1965ZM210.005 28.1965C213.596 28.1965 216.063 30.2097 216.288 33.5652H213.596C213.371 32.6695 213.147 31.7738 212.472 31.3273C211.801 30.6589 211.129 30.4343 210.23 30.4343H210.005C207.089 30.4343 205.296 33.1187 205.296 36.2495C205.296 39.383 206.864 42.2919 210.005 42.0673H210.23C211.129 42.0673 212.023 41.8427 212.475 41.1717C213.147 40.5033 213.596 39.8295 213.596 38.9338H216.288C215.838 42.2919 213.371 44.3052 210.005 44.3052C205.296 44.3052 202.602 40.7225 202.602 36.2495C202.602 31.7765 205.296 28.1965 210.005 28.1965ZM234.012 28.643V44.3052H231.317V31.5519L223.692 44.3052H220.101V28.643H222.793V41.3962L230.646 28.643H234.012ZM252.857 28.643V44.3052H250.162V31.5519L242.537 44.3052H238.946V28.643H241.637V41.6208L249.491 28.643H252.857ZM243.433 22.3786C243.658 23.9454 244.329 24.8384 245.675 24.8384C247.024 24.8384 247.92 23.9454 247.92 22.3786H250.162C250.162 25.2876 248.37 26.4052 245.453 26.4052C242.537 26.4052 240.741 25.063 240.741 22.3786H243.433ZM264.073 28.1965C267.661 28.1965 270.131 30.2097 270.353 33.5652H267.661C267.437 32.6695 267.215 31.7738 266.54 31.3273C265.869 30.6589 265.194 30.4343 264.298 30.4343H264.073C261.157 30.4343 259.361 33.1187 259.361 36.2495C259.361 39.383 260.932 42.2919 264.073 42.0673H264.298C265.194 42.0673 266.091 41.8427 266.54 41.1717C267.215 40.5033 267.661 39.8295 267.661 38.9338H270.353C269.906 42.2919 267.437 44.3052 264.073 44.3052C259.361 44.3052 256.67 40.7225 256.67 36.2495C256.67 31.7765 259.586 28.1965 264.073 28.1965ZM279.777 36.6987L276.86 39.383V44.3025H274.169V28.643H276.86V36.2495L284.714 28.643H287.855L281.572 34.6854L288.302 44.3052H284.938L279.777 36.6987ZM296.602 28.1965C300.642 28.1965 304.005 31.5519 304.005 36.2495C304.005 40.9498 300.642 44.5271 296.602 44.3052C292.564 44.3052 289.198 40.9498 289.198 36.2495C289.198 31.7765 292.564 28.1965 296.602 28.1965ZM296.827 42.2919C299.518 42.2919 301.538 40.0541 301.538 36.4741C301.538 32.8941 299.518 30.6562 296.827 30.6562H296.602C293.91 30.6562 291.893 32.8941 291.893 36.4741C291.893 40.0541 293.91 42.2919 296.602 42.2919H296.827ZM314.326 28.1965C318.366 28.1965 320.833 31.1054 320.833 35.1319V36.6987H309.839C309.839 40.2787 312.308 42.2919 314.326 42.2919H314.55C316.346 42.2919 317.692 41.3963 318.141 39.6049H320.833C320.159 42.7384 317.692 44.5271 314.326 44.5271C310.288 44.5271 306.922 41.6208 307.147 36.2495C306.922 31.1054 310.513 28.1965 314.326 28.1965ZM318.141 34.6854C318.141 31.9984 316.346 30.6562 314.326 30.6562H314.104C312.308 30.6562 310.288 31.7765 309.839 34.6854H318.141ZM155.937 55.2671C159.978 55.2671 163.341 58.6225 163.341 63.3228C163.341 68.0204 159.975 71.6004 155.937 71.3758C151.9 71.3758 148.534 68.0204 148.534 63.3228C148.312 58.6225 151.9 55.0452 155.937 55.2671ZM156.162 69.1379C158.854 69.1379 160.871 66.9028 160.871 63.3228C160.871 59.7401 158.854 57.5049 156.162 57.5049H155.937C153.246 57.5049 151.228 59.7428 151.228 63.3228C151.228 66.9028 153.246 69.1379 155.937 69.1379H156.162ZM167.157 56.3874C167.381 54.8206 167.828 53.7003 168.502 52.8047C169.624 51.4625 171.419 50.7941 173.886 50.7941H177.477C178.598 50.7941 179.047 50.5695 179.047 49.6738V49.2273H181.514V50.1203C181.514 52.3582 180.615 53.2538 177.924 53.2538H173.886C170.298 53.2538 169.177 55.0452 168.949 59.2963C170.073 57.7295 172.315 56.3874 174.56 56.3874C178.373 56.3874 181.514 59.2936 181.514 63.7693C181.514 68.2449 178.373 71.825 174.111 71.825C169.174 71.825 166.707 68.2423 166.707 62.4271C166.707 59.7428 166.932 57.7295 167.157 56.3847V56.3874ZM174.336 69.3625C177.027 69.3625 178.823 66.9028 178.823 63.5447C178.823 60.4139 177.027 58.176 174.336 58.176H174.111C171.419 58.176 169.402 60.4139 169.402 63.3228C169.402 66.6782 171.419 69.3652 174.336 69.3652V69.3625ZM209.556 68.916V75.405H207.089V71.1539H185.327V55.4917H188.019V68.9134H194.751V55.4917H197.443V68.9134H204.172V55.4917H206.864V68.9134H209.556V68.916ZM218.755 55.2671C222.795 55.2671 225.262 58.176 225.262 62.2025V63.7693H214.268C214.268 67.3493 216.735 69.3625 218.755 69.3625H218.98C220.772 69.3625 222.121 68.4695 222.568 66.6782H225.262C224.588 69.8117 222.121 71.6004 218.755 71.6004C214.715 71.6004 211.351 68.6914 211.576 63.3228C211.576 57.9514 215.167 55.0452 218.755 55.2671ZM222.795 61.5314C222.795 58.8471 221 57.5049 218.98 57.5049H218.755C216.962 57.5049 214.942 58.6225 214.492 61.5314H222.793H222.795ZM235.807 55.2671C239.395 55.2671 241.862 57.2804 242.087 60.6358H239.395C239.171 59.7428 238.946 58.8471 238.271 58.4006C237.603 57.7295 236.928 57.5049 236.029 57.5049H235.804C232.888 57.5049 231.095 60.1893 231.095 63.3228C231.095 66.4536 232.666 69.3652 235.804 69.1379H236.029C236.928 69.1379 237.825 68.916 238.274 68.2449C238.946 67.5739 239.395 66.9028 239.395 66.0071H242.087C241.637 69.3625 239.171 71.3758 235.807 71.3758C231.095 71.3758 228.403 67.7958 228.403 63.3228C228.403 58.6225 231.095 55.0452 235.807 55.2671ZM256.894 57.7295H251.733V71.1512H249.041V57.7295H243.882V55.4917H256.894V57.7295ZM259.811 55.4917H267.215C270.356 55.4917 272.149 57.283 272.149 59.5182C272.149 61.3095 271.027 62.6517 269.232 63.3228C270.803 63.5447 272.598 64.8895 272.598 66.9028C272.598 69.3625 270.356 71.3758 267.439 71.3758H259.811V55.4917ZM266.99 62.2025C268.56 62.2025 269.682 61.3095 269.682 59.7428C269.682 58.4006 268.56 57.5049 266.765 57.5049H262.727V62.2025H266.99ZM266.765 69.1379C268.785 69.1379 269.906 68.2449 269.906 66.6782C269.906 65.336 268.785 64.4404 266.99 64.4404H262.503V69.3625H266.765V69.1379ZM282.918 55.2671C286.956 55.2671 290.322 58.6225 290.322 63.3228C290.322 68.0204 286.956 71.6004 282.918 71.3758C278.881 71.3758 275.515 68.0204 275.515 63.3228C275.515 58.6225 278.881 55.0452 282.918 55.2671ZM283.143 69.1379C285.835 69.1379 287.855 66.9028 287.855 63.3228C287.855 59.7401 285.835 57.5049 283.143 57.5049H282.918C280.227 57.5049 278.206 59.7428 278.206 63.3228C278.206 66.9028 280.227 69.1379 282.918 69.1379H283.143ZM164.687 88.6047C165.361 89.4977 165.811 90.3961 165.811 91.7356C165.811 95.7647 162.445 98.4464 157.283 98.4464C151.675 98.4464 148.534 95.7647 148.312 90.8426H152.574C153.021 93.3023 154.591 94.6445 157.508 94.6445C160.2 94.6445 161.548 93.5269 161.548 91.7356C161.548 89.9442 160.2 89.0512 157.733 89.0512H154.816V85.2493H157.508C159.975 85.2493 161.321 84.1291 161.321 82.3404C161.321 80.7736 159.975 79.6534 157.508 79.6534C156.162 79.6534 155.041 80.1025 154.145 80.7736C153.47 81.4447 153.021 82.3404 152.796 83.6825H148.534C148.534 82.5623 148.983 81.4447 149.433 80.0999C150.104 78.985 151.003 77.8647 152.349 77.1936C153.881 76.4328 155.573 76.0496 157.283 76.076C162.669 76.076 165.586 78.5358 165.586 82.3404C165.586 84.5782 164.237 86.3669 161.77 87.038C162.894 87.2626 163.791 87.709 164.687 88.6047ZM169.399 82.3404H173.439V88.3828H179.494V82.3404H183.535V98.0026H179.494V91.5136H173.436V97.9999H169.396V82.3431L169.399 82.3404ZM186.898 90.1715C186.898 84.8001 190.039 81.8912 193.63 82.1158C195.872 82.1158 197.668 83.2334 198.339 84.5755V82.3431H202.38V98.0052H198.337V95.7674C197.44 97.1096 195.87 98.2271 193.627 98.2271C190.486 98.4517 186.895 95.5428 186.895 90.1741L186.898 90.1715ZM194.751 95.091C196.769 95.091 198.339 93.3023 198.339 90.1715C198.339 87.038 196.769 85.2493 194.751 85.2493H194.526C192.506 85.2493 190.936 87.2626 190.936 90.1688C190.936 92.8558 192.506 95.0937 194.526 95.0937H194.751V95.091ZM206.639 82.3404H210.904V88.3828H216.959V82.3404H221V98.0026H216.959V91.5136H210.904V97.9999H206.639V82.3431V82.3404ZM240.516 82.3404V98.0026H236.476V86.8134L230.643 97.9999H225.262V82.3431H229.3V93.5296L234.908 82.3431H240.516V82.3404ZM243.882 90.1715C243.882 85.4712 246.799 81.8912 251.286 82.1158C255.773 82.1158 258.465 85.4712 258.465 90.1715V91.7356H247.92C248.145 93.7515 249.715 95.3182 251.511 95.3182H251.733C253.304 95.3182 254.203 94.4226 254.427 93.3023H258.465C257.791 96.4358 255.099 98.671 251.286 98.671C247.246 98.4491 243.658 95.3156 243.882 90.1688V90.1715ZM254.427 88.3801C254.427 86.5888 252.857 85.4712 251.286 85.4712H251.061C249.266 85.4712 247.92 86.5915 247.92 88.3801H254.427Z" fill="white"/>
</g>
<defs>
<clipPath id="clip0_509_5418">
<rect width="120" height="120" fill="white"/>
</clipPath>
</defs>
</svg>
