<svg width="148" height="81" viewBox="0 0 148 81" fill="none" xmlns="http://www.w3.org/2000/svg">
<g clip-path="url(#clip0_509_5532)">
<path d="M61.3088 18.9715H74.304L84.2214 33.2629L94.1388 18.9715H106.45L90.3771 40.2566L107.818 63.9743H94.4808L83.5375 48.4666L72.2522 63.9743H59.9409L77.7238 40.2566L61.3088 18.9715ZM122.181 26.2693L120.129 36.3037C121.497 35.0874 122.865 34.1752 124.575 33.567C126.285 32.9589 127.995 32.6548 129.705 32.6548C132.099 32.6548 134.492 32.9589 136.202 33.8711C138.254 34.7833 139.622 35.6955 140.99 37.2159C142.358 38.4322 143.384 40.2566 144.068 42.081C144.752 43.9055 145.094 45.7299 145.094 47.8584C145.094 49.9869 144.752 52.1154 143.726 54.2439C142.7 56.0684 141.332 57.8928 139.622 59.4132C137.912 60.9335 135.86 61.8457 133.808 62.758C131.415 63.6702 129.363 63.9743 126.627 63.9743C124.233 63.9743 121.839 63.6702 119.787 63.062C117.735 62.4539 115.684 61.5417 113.974 60.3254C112.264 59.1091 110.896 57.5887 109.87 56.0684C108.844 54.2439 108.16 52.4195 108.16 49.9869H118.077C118.419 52.1154 119.103 53.6358 120.471 54.8521C121.839 56.0684 123.891 56.6765 125.943 56.6765C127.311 56.6765 128.337 56.3724 129.363 56.0684C130.389 55.4602 131.415 54.8521 132.099 54.2439C132.782 53.3317 133.466 52.7236 133.808 51.5073C134.15 50.5951 134.492 49.3788 134.492 48.4666C134.492 47.2503 134.15 46.3381 133.808 45.1218C133.466 44.2095 132.782 43.2973 132.099 42.3851C131.415 41.777 130.389 41.1688 129.363 40.5607C128.337 40.2566 126.969 39.9525 125.601 39.9525C123.891 39.9525 122.523 40.2566 121.155 40.8647C120.129 41.4729 119.103 42.3851 118.077 43.6014H109.186L113.974 19.2756H141.674V26.5733H122.181V26.2693ZM177.582 18.9715C179.634 18.9715 181.685 19.2756 183.395 19.5797C185.105 20.1878 186.815 20.796 188.183 21.7082C189.551 22.6204 190.577 23.8367 191.603 25.3571C192.287 26.8774 192.971 28.7019 192.971 30.5263C192.971 33.2629 192.287 35.9996 190.577 37.824C188.867 39.9525 186.473 41.1688 183.395 41.777C185.105 42.081 186.473 42.3851 187.499 42.9933C188.525 43.6014 189.551 44.2095 190.235 45.1218C190.919 46.034 191.261 46.9462 191.603 48.1625C191.945 49.3788 191.945 50.5951 192.287 51.8114V54.548C192.287 55.7643 192.287 56.6765 192.629 57.8928C192.629 59.1091 192.971 60.0213 193.313 60.9335C193.655 61.8457 193.997 62.758 194.681 63.3661H189.209C188.867 63.3661 188.525 63.062 188.525 62.4539C188.525 61.8457 188.183 61.2376 188.183 60.6295C188.183 60.0213 188.183 59.4132 187.841 58.805V57.2847C187.841 55.7643 187.499 54.2439 187.499 52.4195C187.157 50.8991 186.815 49.3788 186.131 48.1625C185.447 46.9462 184.421 46.034 183.053 45.1218C181.685 44.2095 179.976 43.9055 177.582 44.2095H159.457V63.9743H154.669V18.9715H177.582ZM177.24 40.2566C178.608 40.2566 179.976 39.9525 181.343 39.6485C182.711 39.3444 183.737 38.7362 184.763 37.824C185.789 37.2159 186.473 35.9996 187.157 35.0874C187.841 34.1752 188.183 32.6548 188.183 31.4385C188.183 28.7019 187.157 26.5733 185.447 25.053C183.737 23.5326 181.002 22.6204 177.24 22.6204H159.457V40.2566H177.24ZM235.034 18.9715V22.6204H205.282V38.7362H233.324V42.3851H205.282V60.3254H235.376V63.9743H200.152V18.9715H235.034ZM278.124 18.9715V22.6204H260.683V63.9743H255.553V22.6204H238.112V18.9715H278.124ZM295.906 18.9715L315.741 63.9743H310.612L304.456 49.9869H281.543L275.388 63.9743H270.258L290.435 18.9715H295.906ZM302.746 46.3381L292.829 23.2285L282.569 46.3381H302.746ZM325.317 18.9715H320.529V63.9743H325.317V18.9715ZM340.706 18.9715V60.3254H369.09V63.9743H335.918V18.9715H340.706ZM397.474 65.4946C393.371 65.4946 389.951 64.8865 386.873 63.6702C383.795 62.4539 381.401 60.6295 379.349 58.501C377.298 56.3724 375.93 53.6358 374.562 50.8991C373.536 47.8584 372.852 44.8177 372.852 41.4729C372.852 38.1281 373.536 35.0874 374.562 32.0466C375.588 29.0059 377.298 26.5733 379.349 24.4448C381.401 22.3163 384.137 20.4919 386.873 19.2756C389.951 18.0593 393.371 17.4512 397.132 17.4512C399.868 17.4512 402.604 17.7552 405.34 18.6675C407.734 19.2756 410.128 20.4919 411.837 21.7082C413.547 23.2285 415.257 24.7489 416.625 26.5733C417.993 28.3978 418.677 30.5263 419.019 32.9589V33.8711H415.941V33.2629C415.599 31.1344 414.915 29.6141 413.889 27.7896C412.863 26.2693 411.495 24.7489 409.785 23.5326C408.076 22.3163 406.366 21.4041 404.314 20.796C402.262 20.1878 399.868 19.8838 397.474 19.8838C394.054 19.8838 390.977 20.4919 388.241 21.7082C385.505 22.9245 383.453 24.4448 381.401 26.2693C379.691 28.0937 378.323 30.5263 377.297 32.9589C376.272 35.6955 375.93 38.4322 375.93 41.4729C375.93 44.5136 376.272 47.2503 377.297 49.9869C378.323 52.7236 379.691 54.8521 381.401 56.6765C383.111 58.5009 385.505 60.0213 388.241 61.2376C390.977 62.4539 394.054 63.062 397.816 63.062C400.552 63.062 402.946 62.758 405.34 61.8458C407.734 60.9335 409.785 59.7172 411.495 58.501C413.205 56.9806 414.573 55.4602 415.599 53.3317C416.625 51.2032 416.967 49.0747 416.967 46.6421V44.8177H397.474V42.3851H420.045V64.8865H416.967V56.3724C415.599 58.805 413.547 60.9335 410.811 62.4539C407.05 64.5824 402.604 65.4946 397.474 65.4946ZM424.833 64.5824H424.149V18.3634H445.693C451.165 18.3634 455.269 19.2756 458.005 21.4041C460.74 23.5326 462.108 26.5733 462.108 30.5263V30.8304C462.108 33.8711 461.082 36.3037 459.031 38.4322C457.663 39.9525 455.611 41.1688 453.217 42.081C454.243 42.3851 454.927 42.6892 455.611 42.9933C456.979 43.6014 458.005 44.5136 459.031 45.7299C459.714 46.9462 460.398 48.1625 460.398 49.6829C460.74 51.2032 460.74 52.7236 460.74 54.548V56.9806C460.74 57.8928 460.74 58.805 461.082 59.7172C461.082 60.6295 461.424 61.5417 461.424 62.1498C461.424 62.758 461.766 63.3661 461.766 63.3661L462.792 64.5824H459.031L458.689 64.2783C458.347 63.6702 458.347 63.062 458.005 62.1498C458.005 61.2376 457.663 60.6295 457.663 59.7172V56.9806V54.548C457.663 52.7236 457.663 51.2032 457.321 49.6829C456.979 48.4666 456.637 47.2503 455.611 46.3381C454.927 45.4258 453.559 44.8177 451.849 44.2095C450.139 43.6014 448.087 43.6014 445.009 43.6014H426.884V64.5824H424.833ZM445.351 40.8647C447.061 40.8647 448.771 40.5607 450.481 40.2566C452.191 39.9525 453.559 39.3444 454.585 38.4322C455.953 37.52 456.637 36.6077 457.663 35.0874C458.347 33.8711 458.689 32.3507 458.689 30.2222C458.689 27.1815 457.663 25.053 455.611 23.2285C453.559 21.7082 450.481 20.796 445.693 20.796H426.884V40.5607H445.351V40.8647ZM478.181 63.6702C475.103 62.4539 472.71 60.6295 470.658 58.501C468.606 56.3724 467.238 53.6358 466.212 50.8991C465.186 47.8584 464.502 44.8177 464.502 41.777C464.502 38.4322 465.186 35.3914 466.212 32.6548C467.238 29.6141 468.948 27.1815 470.658 25.053C472.71 22.9245 475.103 21.1 478.181 19.8838C481.259 18.6675 484.679 18.0593 488.441 18.0593C492.202 18.0593 495.622 18.6675 498.7 19.8838C501.778 21.1 504.172 22.9245 506.224 25.053C508.275 27.1815 509.643 29.9181 510.669 32.6548C511.695 35.6955 512.379 38.7362 512.379 41.777C512.379 45.1218 511.695 48.1625 510.669 50.8991C509.643 53.9399 507.934 56.3724 506.224 58.501C504.172 60.6295 501.778 62.4539 498.7 63.6702C495.622 64.8865 492.202 65.4946 488.441 65.4946C484.679 65.4946 481.259 64.8865 478.181 63.6702ZM473.052 56.9806C474.762 58.805 477.155 60.3254 479.549 61.5417C481.943 62.4539 485.021 63.062 488.441 63.062C491.86 63.062 494.596 62.4539 497.332 61.5417C500.068 60.3254 502.12 59.1091 503.83 56.9806C505.54 55.1562 506.908 52.7236 507.934 50.291C508.959 47.5543 509.301 44.8177 509.643 41.4729C509.643 38.4322 508.959 35.3914 507.934 32.6548C506.908 29.9181 505.54 27.7896 503.83 25.9652C502.12 24.1408 499.726 22.6204 497.332 21.4041C494.938 20.4919 491.86 19.8838 488.441 19.8838C485.021 19.8838 482.285 20.4919 479.549 21.4041C476.813 22.6204 474.762 23.8367 473.052 25.9652C471.342 27.7896 469.974 30.2222 468.948 32.6548C467.922 35.3914 467.58 38.1281 467.58 41.4729C467.58 44.5136 468.264 47.5543 468.948 50.291C469.974 52.7236 471.342 55.1562 473.052 56.9806ZM554.785 18.3634H555.469V47.2503C555.469 53.3317 553.759 58.1969 550.339 61.2376C546.919 64.2783 542.131 65.7987 535.976 65.7987C529.82 65.7987 525.032 64.2783 521.613 61.2376C518.193 58.1969 516.483 53.6358 516.483 47.2503V18.3634H519.561V47.2503C519.561 52.4195 520.929 56.3724 523.665 59.1091C526.4 61.8458 530.162 63.062 535.976 63.062C541.789 63.062 545.551 61.8458 548.287 59.1091C551.023 56.3724 552.391 52.7236 552.391 47.2503V18.3634H554.785ZM560.94 64.5824H560.256V18.3634H581.459C586.589 18.3634 590.35 19.2756 593.428 21.7082C596.164 23.8367 597.874 27.1815 597.874 31.4385C597.874 33.567 597.532 35.3914 596.506 36.9118C595.822 38.4322 594.454 39.9525 593.086 40.8647C591.718 42.081 589.667 42.6892 587.615 43.2973C585.563 43.9055 583.169 44.2095 580.775 44.2095H563.334V64.5824H560.94ZM581.117 41.4729C583.169 41.4729 584.879 41.1688 586.247 40.8647C587.957 40.5607 589.325 39.6485 590.35 38.7362C591.376 37.824 592.402 36.9118 593.086 35.6955C593.77 34.4792 594.112 32.9589 594.112 31.4385C594.112 28.0937 593.086 25.6611 591.034 23.8367C588.983 22.0123 585.563 21.1 581.117 21.1H562.992V41.4729H581.117Z" fill="white"/>
<path fill-rule="evenodd" clip-rule="evenodd" d="M27.1114 1.64062H0.437012L31.2151 40.2578L0.437012 78.875H27.1114L57.8895 40.2578L27.1114 1.64062Z" fill="#949494"/>
</g>
<defs>
<clipPath id="clip0_509_5532">
<rect width="148" height="81" fill="white"/>
</clipPath>
</defs>
</svg>
