<svg width="78" height="120" viewBox="0 0 78 120" fill="none" xmlns="http://www.w3.org/2000/svg">
<g clip-path="url(#clip0_509_5680)">
<path fill-rule="evenodd" clip-rule="evenodd" d="M26.3951 118.069C32.0072 107.916 35.0985 88.601 36.2875 54.775H40.3776C41.5666 88.6505 44.658 107.966 50.2224 118.069C46.5128 119.307 42.4703 120 38.3326 120C34.1949 120 30.1999 119.356 26.3951 118.069ZM476.309 85.481C476.309 87.6105 475.691 89.443 474.357 91.077C472.552 93.207 469.794 94.2965 466.132 94.2965H455.573V64.185H473.98V69.484H461.375V75.8235H466.084C469.888 75.8235 472.599 76.913 474.357 79.191C475.691 80.8255 476.309 82.9055 476.309 85.481ZM470.221 85.035C470.221 83.5 469.746 82.41 468.89 81.6675C467.986 80.875 466.702 80.4785 465.085 80.4785H461.423V89.4925H465.085C466.702 89.4925 467.986 89.1455 468.89 88.403C469.698 87.66 470.221 86.521 470.221 85.035ZM508.984 94.2965H502.469L499.994 87.561H488.104L485.629 94.2965H479.354L490.862 64.185H497.472L508.984 94.2965ZM498.235 82.559L494.002 70.227L489.91 82.559H498.235ZM535.856 94.2965H530.005V81.2215H518.352V94.2965H512.501V64.185H518.352V76.3185H530.005V64.185H535.856V94.2965ZM565.721 94.2965H558.254L547.552 79.29L547.411 94.2965H541.56V64.185H547.411V77.0615L557.971 64.185H564.915L552.879 77.755L565.721 94.2965ZM414.434 110.293H416.955V49.9216H414.434V110.293ZM153.427 99.1995H140.966V59.183H166.648C179.775 59.183 179.775 70.425 179.775 72.9015C179.775 75.526 179.775 87.66 166.648 87.66H153.427V99.1995ZM153.379 69.088V77.7055H162.321C163.89 77.7055 167.362 77.7055 167.362 73.248C167.362 69.1375 163.842 69.1375 162.463 69.1375H153.379V69.088ZM173.592 99.1995H186.671L189.715 90.978H203.65L206.599 99.1995H227.477L237.37 70.326L247.262 99.1995H260.388L244.075 59.183H230.426L216.967 92.5135L203.698 59.183H189.715L173.592 99.1995ZM196.659 70.4745L200.653 81.7665H192.711L196.563 70.3755L196.659 70.4745ZM363.07 74.387C376.196 74.387 376.196 82.1625 376.196 86.521C376.196 91.077 376.196 99.249 363.212 99.249H337.911V59.2325H374.341V69.2365H350.371V74.4365H363.07V74.387ZM361.025 89.8885C363.783 89.8885 363.783 87.6105 363.783 86.6695C363.783 85.778 363.783 83.7475 360.977 83.7475H350.371V89.938H361.025V89.8885ZM119.327 99.1995H105.82L111.955 87.9075L96.5456 59.183H110.481L118.471 76.2195L126.508 59.183H140.015L119.327 99.1995ZM290.922 99.1995H273.896C264.526 99.1995 257.25 91.176 257.25 79.736C257.25 66.8595 264.574 59.183 274.038 59.183H290.922V69.187H280.03C273.277 69.187 269.71 71.267 269.71 79.538C269.71 87.759 273.372 89.2945 280.03 89.2945H290.922V99.1995ZM335.39 99.1995H322.93V70.97L308.376 99.1995H293.49V59.183H305.998V86.719L320.218 59.183H335.39V99.1995ZM38.3801 52.299C57.3566 52.299 73.5268 65.968 73.5268 83.599C73.5268 89.195 71.767 94.8905 68.3901 100.141C59.4017 91.325 51.459 75.1795 48.4154 56.0625C48.0821 55.914 45.3714 55.2705 43.2788 55.122C43.2788 57.895 45.5141 98.9515 59.4489 113.512C69.7695 106.331 76.6656 93.9495 76.6656 80.033C76.6656 60.916 63.8719 44.9195 46.703 40.9575C45.7994 28.0809 45.7994 22.8808 45.7043 16.492H42.6605C42.6605 16.5415 42.8032 34.4202 42.8507 40.3137C41.8044 40.1651 40.7581 40.1156 39.6167 40.0165C39.6167 29.7153 39.6167 10.9451 39.5691 0H37.0484C37.0009 10.9451 37.0009 29.7648 37.0009 40.0165C35.8595 40.0661 34.8132 40.1651 33.7668 40.3137C33.8144 34.4202 33.9571 16.591 33.9571 16.492H30.8657C30.8657 22.8808 30.8657 28.0809 29.9621 40.9575C12.7931 44.9195 -0.000488281 60.916 -0.000488281 80.033C-0.000488281 93.999 6.80052 106.331 17.2161 113.512C31.1511 98.9515 33.3864 57.895 33.3864 55.122C31.2937 55.2705 28.5828 55.914 28.2499 56.0625C25.1586 75.1795 17.2636 91.325 8.27489 100.141C4.85058 94.94 3.13845 89.195 3.13845 83.599C3.23357 65.9185 19.3087 52.299 38.3801 52.299Z" fill="#4C85C9"/>
</g>
<defs>
<clipPath id="clip0_509_5680">
<rect width="78" height="120" fill="white"/>
</clipPath>
</defs>
</svg>
