<svg width="120" height="120" viewBox="0 0 120 120" fill="none" xmlns="http://www.w3.org/2000/svg">
<path fill-rule="evenodd" clip-rule="evenodd" d="M107.577 81.9782C108.973 52.7527 83.8023 19.8406 49.4879 15.7724L49.5466 15.373C83.3752 15.373 109.309 46.7317 109.309 71.4708C109.276 76.6207 108.87 79.8115 108.146 82.1281L107.577 81.9782ZM105.527 85.6931C103.277 88.4468 100.446 91.2193 97.1297 93.8514C91.0287 58.716 65.2439 27.9926 47.0143 19.0251L46.6238 19.2976C64.9571 34.3637 86.8235 63.6248 95.327 95.2298C91.259 98.2319 86.5566 100.995 81.3611 103.238C64.061 83.4834 47.9323 45.3847 42.7348 21.2085L42.2061 21.3678C42.3234 44.8355 58.9629 84.6742 79.2549 104.114C74.7514 105.892 69.9087 107.279 64.8231 108.106C45.3718 100.39 31.5262 75.6773 31.5262 50.3617C31.5262 33.8354 36.5584 23.6121 37.532 21.5198L37.1174 21.3553C35.9397 23.1393 28.5679 33.3574 28.5679 51.1992C28.5679 79.8147 42.6615 101.687 61.3727 108.575C54.9713 109.272 48.2349 109.061 41.3236 107.632L41.1844 108.068C43.186 108.806 49.9768 111.661 60.3364 111.661C83.7678 111.661 99.6075 97.0831 105.984 86.0023L105.527 85.6931Z" fill="#28458E"/>
<path fill-rule="evenodd" clip-rule="evenodd" d="M57.9936 5.04688C40.2308 5.04688 19.4028 17.8834 19.4028 29.6172C19.4028 34.156 23.5494 37.9904 32.1314 37.9904C52.0538 37.9904 70.563 24.2849 70.563 13.6276C70.563 8.01964 65.1843 5.04688 57.9936 5.04688ZM65.0849 13.2964C65.0849 22.2797 47.857 33.2608 33.4556 33.2608C27.0929 33.2608 23.6551 30.7535 23.6551 26.6162C23.6551 17.504 41.0787 6.70936 54.5871 6.70936C63.3942 6.70936 65.0849 11.1968 65.0849 13.2964Z" fill="#0096D6"/>
<path fill-rule="evenodd" clip-rule="evenodd" d="M12.326 35.0504C11.8266 35.9152 9.82715 39.8355 9.82715 43.8523C9.82715 51.302 17.3445 58.2182 31.1712 58.2182C57.7704 58.2182 88.5014 38.6133 88.5014 20.4151C88.5014 12.2463 80.7789 7.80496 75.417 6.88672L75.3165 7.20538C76.9841 7.73368 83.0935 10.5775 83.0935 17.8543C83.0935 32.3544 55.9604 52.1113 28.933 52.1113C18.5861 52.1113 12.0674 46.997 12.0674 39.5473C12.0674 37.1909 12.5573 35.6384 12.6871 35.1887L12.326 35.0504Z" fill="#EB7B30"/>
<path fill-rule="evenodd" clip-rule="evenodd" d="M99.4685 21.7754C100.198 22.3299 104.579 25.9861 104.579 32.9002C104.579 56.4747 67.6906 79.6562 35.0783 79.6562C15.6301 79.6562 6.76444 70.0408 7.157 61.5031H7.5056C8.2677 65.937 14.5822 73.871 31.6039 73.871C64.2569 73.871 100.715 49.8845 100.715 28.8687C100.715 25.2639 99.7375 23.0175 99.1848 22.0186L99.4685 21.7754Z" fill="#00984A"/>
<path fill-rule="evenodd" clip-rule="evenodd" d="M111.798 43.7842C111.951 44.2863 112.746 46.5431 112.746 50.0777C112.746 76.3022 75.4144 98.753 42.9466 98.753C26.2359 98.753 17.5094 90.6251 15.667 87.3242L15.9643 87.1041C20.5882 91.1534 29.6957 94.2299 40.3243 94.2299C68.9994 94.2299 111.787 72.3849 111.405 43.8796L111.798 43.7842Z" fill="#DF002C"/>
</svg>
