<svg width="46" height="40" viewBox="0 0 46 40" fill="none" xmlns="http://www.w3.org/2000/svg">
<path d="M0 0H18.4708V18.2418C18.4708 23.8584 17.079 28.4982 14.2954 32.1612C11.559 35.8242 7.54872 38.4371 2.26462 40L0.0707692 33.1136C1.86359 32.4786 3.34974 31.7949 4.52923 31.0623C5.70872 30.3785 6.65231 29.5727 7.36 28.6447C8.06769 27.7656 8.56308 26.7399 8.84615 25.5678C9.12923 24.3956 9.27077 23.0281 9.27077 21.4652H0V0ZM27.5292 0H46V18.2418C46 23.8584 44.6082 28.4982 41.8246 32.1612C39.0882 35.8242 35.0779 38.4371 29.7938 40L27.6 33.1136C29.3928 32.4786 30.879 31.7949 32.0585 31.0623C33.2379 30.3785 34.1815 29.5727 34.8892 28.6447C35.5969 27.7656 36.0923 26.7399 36.3754 25.5678C36.6585 24.3956 36.8 23.0281 36.8 21.4652H27.5292V0Z" fill="#262626"/>
</svg>
